<?xml version="1.0" standalone="no"?>
<!DOCTYPE svg PUBLIC "-//W3C//DTD SVG 20010904//EN"
 "http://www.w3.org/TR/2001/REC-SVG-20010904/DTD/svg10.dtd">
<svg version="1.0" xmlns="http://www.w3.org/2000/svg"
 width="1024.000000pt" height="1024.000000pt" viewBox="0 0 1024.000000 1024.000000"
 preserveAspectRatio="xMidYMid meet">
<metadata>
Created by potrace 1.14, written by Peter Selinger 2001-2017
</metadata>
<g transform="translate(0.000000,1024.000000) scale(0.100000,-0.100000)"
fill="#000000" stroke="none">
<path d="M0 5120 l0 -5120 4720 0 4720 0 0 80 0 80 320 0 320 0 0 -80 0 -80
80 0 80 0 0 5120 0 5120 -5120 0 -5120 0 0 -5120z m3805 2180 c50 -6 97 -13
105 -15 8 -2 67 -9 130 -15 127 -13 130 -14 180 -23 53 -9 167 -25 350 -48 91
-11 197 -26 235 -34 39 -7 108 -21 155 -30 83 -16 251 -63 320 -90 19 -8 46
-17 60 -20 51 -13 147 -59 205 -100 33 -23 83 -54 112 -68 42 -22 59 -38 89
-89 53 -90 56 -140 14 -222 -38 -75 -71 -110 -160 -165 -222 -139 -485 -240
-925 -356 -27 -7 -122 -32 -210 -56 -88 -23 -207 -52 -265 -64 l-105 -22 3
-166 4 -167 -474 -2 -473 -3 0 -225 0 -225 383 -3 382 -2 0 -185 0 -185 -382
-2 -383 -3 -3 -318 -2 -318 67 -30 c38 -17 77 -35 88 -39 43 -18 116 -29 260
-40 83 -6 170 -12 195 -14 25 -2 -49 -2 -165 -1 -220 3 -270 9 -373 50 -34 14
-64 25 -67 25 -3 0 -5 -47 -5 -105 l0 -105 -215 0 -215 0 0 149 0 149 -112 27
c-260 62 -589 190 -825 321 -28 16 -94 70 -145 119 -78 74 -98 100 -116 148
-30 81 -29 158 4 233 42 96 216 255 365 333 31 17 76 43 101 60 24 16 64 37
88 47 25 10 110 50 190 90 80 39 163 77 185 83 22 7 56 18 75 26 19 7 70 25
113 40 75 26 77 28 77 60 0 37 6 40 195 95 61 18 157 47 215 65 58 18 164 49
235 68 205 55 311 85 440 127 149 47 245 74 310 88 28 5 93 24 145 42 52 17
124 41 160 52 36 11 70 25 77 30 7 5 43 18 80 27 86 23 261 92 335 134 154 87
206 136 238 228 12 32 10 41 -15 97 -36 80 -106 140 -260 222 -159 84 -493
191 -795 255 -136 29 -347 65 -380 65 -14 0 -32 5 -40 11 -11 8 -6 9 20 5 19
-3 76 -10 125 -16z m505 -938 c0 -4 -21 -15 -47 -23 -27 -9 -88 -30 -138 -47
-87 -30 -178 -60 -375 -124 -261 -84 -341 -108 -357 -108 -10 0 -45 -9 -78
-20 -33 -11 -134 -44 -225 -74 -170 -55 -341 -106 -359 -106 -12 0 -16 492 -4
503 9 10 1583 9 1583 -1z m4246 -558 c126 -26 205 -54 287 -101 42 -25 77 -47
77 -50 0 -3 -13 -31 -30 -62 -16 -31 -48 -94 -71 -141 -57 -118 -55 -117 -98
-72 -28 29 -54 42 -116 60 -115 34 -246 49 -288 34 -18 -7 -47 -12 -63 -12
-39 0 -113 -38 -136 -70 -10 -14 -23 -53 -30 -87 -10 -53 -9 -68 6 -108 21
-54 90 -110 176 -143 30 -11 104 -41 164 -66 60 -25 115 -46 123 -46 30 0 140
-54 193 -95 30 -24 83 -73 117 -109 53 -58 63 -75 73 -124 6 -31 16 -71 21
-89 15 -48 9 -217 -11 -294 -10 -37 -28 -85 -41 -106 -28 -46 -120 -163 -128
-163 -4 0 -30 -20 -60 -44 -57 -47 -112 -70 -251 -107 -72 -20 -110 -23 -245
-23 -184 0 -276 13 -427 59 -125 38 -158 56 -157 88 0 12 16 67 35 122 19 55
41 121 50 147 l15 46 56 -25 c106 -49 265 -83 390 -83 111 0 160 9 241 47 51
24 87 94 87 168 -1 33 -7 73 -15 90 -19 38 -102 95 -188 131 -37 15 -110 46
-162 69 -52 22 -113 47 -136 54 -23 7 -83 43 -135 80 -117 84 -196 182 -231
286 -32 96 -32 245 -1 326 50 129 102 201 200 277 100 78 189 113 363 142 83
14 268 11 346 -6z m-3874 -721 l3 -688 26 -62 c36 -86 73 -127 149 -165 61
-31 70 -33 175 -33 100 0 116 3 172 28 88 42 148 122 172 235 7 36 11 263 11
712 l0 660 215 0 215 0 0 -702 c0 -644 -2 -710 -19 -783 -10 -44 -28 -98 -39
-120 -12 -22 -22 -46 -22 -53 0 -7 -28 -43 -62 -78 -156 -161 -329 -230 -609
-241 -198 -8 -337 13 -468 69 -200 88 -319 270 -342 526 -4 53 -8 386 -9 740
l0 642 215 0 214 0 3 -687z m1795 635 c40 -77 143 -299 228 -492 44 -99 50
-107 59 -85 24 59 105 230 199 421 l102 208 239 0 c230 0 238 -1 223 -18 -9
-10 -33 -50 -54 -89 -21 -39 -58 -104 -82 -144 -59 -99 -105 -181 -182 -319
-34 -63 -81 -142 -103 -175 -23 -33 -54 -86 -71 -117 l-30 -57 24 -48 c26 -56
109 -201 126 -223 7 -8 36 -60 65 -115 30 -55 69 -125 87 -155 18 -30 33 -59
33 -63 0 -5 24 -48 54 -96 30 -48 68 -114 85 -147 18 -32 47 -84 66 -114 19
-30 35 -58 35 -62 0 -5 -108 -8 -240 -8 l-240 0 -34 68 c-19 37 -91 182 -161
322 -70 140 -136 270 -147 288 l-21 33 -24 -40 c-13 -22 -34 -68 -47 -103 -14
-35 -47 -103 -74 -153 -27 -49 -53 -101 -57 -115 -4 -14 -15 -36 -24 -49 -9
-14 -39 -74 -68 -135 l-51 -111 -236 -3 c-161 -2 -236 1 -236 8 0 14 38 90 55
110 7 8 29 47 50 85 21 39 54 99 75 135 21 36 72 126 113 200 41 74 100 178
130 230 30 52 65 115 77 140 13 25 33 58 46 73 13 16 24 35 24 43 0 8 -22 49
-48 92 -27 42 -90 150 -140 239 -51 89 -108 187 -127 217 -19 30 -35 58 -35
61 0 4 -13 26 -30 50 -16 24 -30 46 -30 48 0 6 -76 133 -101 169 -11 14 -19
31 -19 37 0 8 74 11 245 11 l245 0 27 -52z"/>
<path d="M2623 5352 c-196 -100 -317 -184 -435 -299 -90 -88 -121 -136 -137
-214 -13 -64 -4 -125 31 -192 24 -50 157 -184 219 -223 24 -15 59 -40 77 -55
18 -16 40 -29 48 -29 9 0 46 -15 83 -34 94 -49 179 -86 196 -86 13 0 15 77 15
585 0 462 -3 585 -12 584 -7 0 -45 -17 -85 -37z"/>
</g>
</svg>
